# 
# Generated by Sweet Home 3D - l? jul 09 15:28:31 CEST 2022
# http://www.sweethome3d.com/
# 
mtllib Hall.mtl
g ground_1
usemtl ground_1
v -203.50003 0.0 -143.43982
v -203.50003 0.0 1765.7379
v 1601.5 0.0 1765.7379
v 1601.5 0.0 -143.43982
v 1591.5 0.0 -133.43982
v 1591.5 0.0 1268.56
v -193.50003 0.0 1268.56
v 406.5 0.0 1278.5398
v 886.5 0.0 1276.5806
v 886.5 0.0 1755.0864
v 406.5 0.0 1755.0864
v -193.5 0.0 -133.43982
vn 0.0 1.0 0.0
vn 0.0 0.0 0.0
f 5//1 4//1 1//1
f 12//1 5//1 1//1
f 12//1 1//1 2//1
f 7//1 12//1 2//1
f 8//1 7//1 2//1
f 11//1 8//1 2//1
f 11//1 2//1 3//1
f 10//1 11//1 3//1
f 9//1 10//1 3//1
f 7//1 8//1 9//1
f 6//1 7//1 9//1
f 6//1 9//1 3//1
f 6//1 3//1 4//1
f 6//1 4//1 5//1
g wall_1_2
usemtl wall_1_2
v 401.5 0.0 1273.56
v 401.5 0.0 1760.1069
v 406.5 0.0 1273.56
vn 0.0 -1.0 0.0
f 15//3 11//3 14//3
f 15//3 14//3 13//3
g wall_1_3
usemtl wall_1_2
v 396.5 0.0 1273.56
v 396.5 0.0 1765.1274
f 13//3 14//3 17//3
f 13//3 17//3 16//3
g wall_1_4
usemtl wall_1_2
v 406.5 250.1 1755.0864
v 401.5 250.1 1760.1069
v 406.5 250.1 1273.56
v 401.5 250.1 1273.56
vn 0.7085525 0.0 0.70565814
vn 1.0 0.0 0.0
vn 0.0 0.0 -1.0
f 14//4 11//4 18//4 19//4
f 11//5 15//5 20//5 18//5
f 15//6 13//6 21//6 20//6
g wall_1_5
usemtl wall_1_2
v 396.5 250.1 1765.1274
v 396.5 250.1 1273.56
vn -1.0 0.0 0.0
f 16//7 17//7 22//7 23//7
f 17//4 14//4 19//4 22//4
f 13//6 16//6 23//6 21//6
g wall_1_6
usemtl wall_1_2
f 21//1 19//1 18//1
f 21//1 18//1 20//1
g wall_1_7
usemtl wall_1_2
f 23//1 22//1 19//1
f 23//1 19//1 21//1
g wall_2_8
usemtl wall_1_2
v 886.5 0.0 1753.1273
v 728.71246 0.0 1753.7714
v 728.73285 0.0 1758.7712
v 891.5 0.0 1758.1069
f 27//3 26//3 25//3
f 27//3 25//3 24//3
v 573.7138 0.0 1754.4039
v 573.7342 0.0 1759.4039
f 29//3 14//3 11//3
f 29//3 11//3 28//3
g wall_2_9
usemtl wall_1_2
v 728.75323 0.0 1763.7714
v 896.5 0.0 1763.0867
f 31//3 30//3 26//3
f 31//3 26//3 27//3
v 573.7546 0.0 1764.4039
f 32//3 17//3 14//3
f 32//3 14//3 29//3
g wall_2_10
usemtl wall_1_2
v 728.71246 250.1 1753.7714
v 886.5 250.1 1753.1273
v 728.73285 250.1 1758.7712
v 891.5 250.1 1758.1069
vn -0.004081676 0.0 -0.99999166
vn -0.99999166 0.0 0.004077214
vn 0.7056609 0.0 -0.7085497
f 24//8 25//8 33//8 34//8
f 25//9 26//9 35//9 33//9
f 27//10 24//10 34//10 36//10
v 573.7138 250.1 1754.4039
v 573.7342 250.1 1759.4039
vn -0.0040815375 0.0 -0.99999166
vn -0.7085525 0.0 -0.70565814
vn 0.9999917 0.0 -0.0040771146
f 28//11 11//11 18//11 37//11
f 11//12 14//12 19//12 18//12
f 29//13 28//13 37//13 38//13
v 728.71246 208.5 1753.7714
v 573.7138 208.5 1754.4039
v 573.7342 208.5 1759.4039
v 728.73285 208.5 1758.7712
vn -0.004081087 0.0 -0.99999166
vn -0.99999166 0.0 0.0040771146
vn 0.9999917 0.0 -0.0040772143
f 39//14 40//14 37//14 33//14
f 40//15 41//15 38//15 37//15
f 42//16 39//16 33//16 35//16
f 42//3 41//3 40//3
f 42//3 40//3 39//3
g wall_2_11
usemtl wall_1_2
v 728.75323 250.1 1763.7714
v 896.5 250.1 1763.0867
vn -0.99999166 0.0 0.004077015
vn 0.004081668 0.0 0.99999166
vn 0.7056696 0.0 -0.7085411
f 26//17 30//17 43//17 35//17
f 30//18 31//18 44//18 43//18
f 31//19 27//19 36//19 44//19
v 573.7546 250.1 1764.4039
vn 0.004081726 0.0 0.99999166
f 14//12 17//12 22//12 19//12
f 17//20 32//20 45//20 22//20
f 32//13 29//13 38//13 45//13
v 573.7546 208.5 1764.4039
v 728.75323 208.5 1763.7714
vn 0.004081087 0.0 0.99999166
vn 0.99999166 0.0 -0.004077015
f 41//15 46//15 45//15 38//15
f 46//21 47//21 43//21 45//21
f 47//22 42//22 35//22 43//22
f 47//3 46//3 41//3
f 47//3 41//3 42//3
g wall_2_12
usemtl wall_1_2
f 34//1 33//1 35//1
f 34//1 35//1 36//1
f 37//1 18//1 19//1
f 37//1 19//1 38//1
f 33//1 37//1 38//1
f 33//1 38//1 35//1
g wall_2_13
usemtl wall_1_2
f 36//1 35//1 43//1
f 36//1 43//1 44//1
f 38//1 19//1 22//1
f 38//1 22//1 45//1
f 35//1 38//1 45//1
f 35//1 45//1 43//1
g wall_3_14
usemtl wall_1_2
v 891.5 0.0 1271.56
f 27//3 24//3 9//3
f 27//3 9//3 48//3
g wall_3_15
usemtl wall_1_2
v 896.5 0.0 1266.5396
f 31//3 27//3 48//3
f 31//3 48//3 49//3
g wall_3_16
usemtl wall_1_2
v 886.5 250.1 1276.5806
v 891.5 250.1 1271.56
vn -0.7056609 0.0 0.7085497
f 48//12 9//12 50//12 51//12
f 9//7 24//7 34//7 50//7
f 24//23 27//23 36//23 34//23
g wall_3_17
usemtl wall_1_2
v 896.5 250.1 1266.5396
vn -0.7056696 0.0 0.7085411
f 49//12 48//12 51//12 52//12
f 27//24 31//24 44//24 36//24
f 31//5 49//5 52//5 44//5
g wall_3_18
usemtl wall_1_2
f 51//1 50//1 34//1
f 51//1 34//1 36//1
g wall_3_19
usemtl wall_1_2
f 52//1 51//1 36//1
f 52//1 36//1 44//1
g wall_4_20
usemtl wall_1_2
v 721.0649 0.0 1272.2557
v 721.08527 0.0 1277.2557
f 9//3 54//3 53//3
f 9//3 53//3 48//3
v 566.0662 0.0 1272.8883
v 401.52042 0.0 1278.56
v 566.0866 0.0 1277.8883
f 57//3 56//3 13//3
f 57//3 13//3 55//3
g wall_4_21
usemtl wall_1_2
v 721.0445 0.0 1267.2557
f 48//3 53//3 58//3
f 48//3 58//3 49//3
v 566.04584 0.0 1267.8883
v 401.47958 0.0 1268.56
f 55//3 13//3 60//3
f 55//3 60//3 59//3
g wall_4_22
usemtl wall_1_2
v 721.08527 250.1 1277.2557
v 721.0649 250.1 1272.2557
vn -0.9999917 0.0 0.0040771146
vn 0.004081651 0.0 0.99999166
f 53//25 54//25 61//25 62//25
f 54//26 9//26 50//26 61//26
f 9//4 48//4 51//4 50//4
v 401.52042 250.1 1278.56
v 566.0866 250.1 1277.8883
v 566.0662 250.1 1272.8883
vn -0.99999166 0.0 0.004083218
vn 0.0040819286 0.0 0.9999917
f 13//27 56//27 63//27 21//27
f 56//28 57//28 64//28 63//28
f 57//13 55//13 65//13 64//13
v 566.0662 208.5 1272.8883
v 566.0866 208.5 1277.8883
v 721.08527 208.5 1277.2557
v 721.0649 208.5 1272.2557
vn 0.99999166 0.0 -0.0040771146
f 66//15 67//15 64//15 65//15
f 67//21 68//21 61//21 64//21
f 68//29 69//29 62//29 61//29
f 68//3 67//3 66//3
f 68//3 66//3 69//3
g wall_4_23
usemtl wall_1_2
v 721.0445 250.1 1267.2557
vn -0.004081836 0.0 -0.99999166
f 49//30 58//30 70//30 52//30
f 58//25 53//25 62//25 70//25
f 48//4 49//4 52//4 51//4
v 401.47958 250.1 1268.56
v 566.04584 250.1 1267.8883
vn -0.004081927 0.0 -0.9999917
f 59//31 60//31 71//31 72//31
f 60//27 13//27 21//27 71//27
f 55//13 59//13 72//13 65//13
v 721.0445 208.5 1267.2557
v 566.04584 208.5 1267.8883
f 73//14 74//14 72//14 70//14
f 74//15 66//15 65//15 72//15
f 69//29 73//29 70//29 62//29
f 69//3 66//3 74//3
f 69//3 74//3 73//3
g wall_4_24
usemtl wall_1_2
f 51//1 62//1 61//1
f 51//1 61//1 50//1
f 65//1 21//1 63//1
f 65//1 63//1 64//1
f 62//1 65//1 64//1
f 62//1 64//1 61//1
g wall_4_25
usemtl wall_1_2
f 52//1 70//1 62//1
f 52//1 62//1 51//1
f 72//1 71//1 21//1
f 72//1 21//1 65//1
f 70//1 72//1 65//1
f 70//1 65//1 62//1
g wall_5_26
usemtl wall_1_2
v 891.5 0.0 1266.56
v 1596.5 0.0 1271.56
v 1591.5 0.0 1266.56
f 77//3 76//3 48//3
f 77//3 48//3 75//3
g wall_5_27
usemtl wall_1_2
v 891.5 0.0 1276.56
v 1601.5 0.0 1276.56
f 76//3 79//3 78//3
f 76//3 78//3 48//3
g wall_5_28
usemtl wall_1_2
v 891.5 250.1 1266.56
v 1591.5 250.1 1266.56
v 1596.5 250.1 1271.56
vn 0.70710677 0.0 -0.70710677
f 75//7 48//7 51//7 80//7
f 76//32 77//32 81//32 82//32
f 77//6 75//6 80//6 81//6
g wall_5_29
usemtl wall_1_2
v 891.5 250.1 1276.56
v 1601.5 250.1 1276.56
vn 0.0 0.0 1.0
f 48//7 78//7 83//7 51//7
f 78//33 79//33 84//33 83//33
f 79//32 76//32 82//32 84//32
g wall_5_30
usemtl wall_1_2
f 80//1 51//1 82//1
f 80//1 82//1 81//1
g wall_5_31
usemtl wall_1_2
f 51//1 83//1 84//1
f 51//1 84//1 82//1
g wall_6_32
usemtl wall_1_2
v 1596.5 0.0 -138.43982
f 76//3 77//3 5//3
f 76//3 5//3 85//3
g wall_6_33
usemtl wall_1_2
f 79//3 76//3 85//3
f 79//3 85//3 4//3
g wall_6_34
usemtl wall_1_2
v 1591.5 250.1 -133.43982
v 1596.5 250.1 -138.43982
vn -0.70710677 0.0 -0.70710677
vn -0.70710677 0.0 0.70710677
f 85//34 5//34 86//34 87//34
f 5//7 77//7 81//7 86//7
f 77//35 76//35 82//35 81//35
g wall_6_35
usemtl wall_1_2
v 1601.5 250.1 -143.43982
f 4//34 85//34 87//34 88//34
f 76//35 79//35 84//35 82//35
f 79//5 4//5 88//5 84//5
g wall_6_36
usemtl wall_1_2
f 87//1 86//1 81//1
f 87//1 81//1 82//1
g wall_6_37
usemtl wall_1_2
f 88//1 87//1 82//1
f 88//1 82//1 84//1
g wall_7_38
usemtl wall_1_2
v -198.5 0.0 -138.43982
f 85//3 5//3 12//3
f 85//3 12//3 89//3
g wall_7_39
usemtl wall_1_2
v -203.5 0.0 -143.43982
f 4//3 85//3 89//3
f 4//3 89//3 90//3
g wall_7_40
usemtl wall_1_2
v -193.5 250.1 -133.43982
v -198.5 250.1 -138.43982
vn 0.70710677 0.0 0.70710677
f 89//35 12//35 91//35 92//35
f 12//33 5//33 86//33 91//33
f 5//36 85//36 87//36 86//36
g wall_7_41
usemtl wall_1_2
v -203.5 250.1 -143.43982
f 90//35 89//35 92//35 93//35
f 85//36 4//36 88//36 87//36
f 4//6 90//6 93//6 88//6
g wall_7_42
usemtl wall_1_2
f 92//1 91//1 86//1
f 92//1 86//1 87//1
g wall_7_43
usemtl wall_1_2
f 93//1 92//1 87//1
f 93//1 87//1 88//1
g wall_8_44
usemtl wall_1_2
v -198.50003 0.0 1273.56
f 12//3 7//3 94//3
f 12//3 94//3 89//3
g wall_8_45
usemtl wall_1_2
v -203.50003 0.0 1278.56
f 89//3 94//3 95//3
f 89//3 95//3 90//3
g wall_8_46
usemtl wall_1_2
v -193.50003 250.1 1268.56
v -198.50003 250.1 1273.56
vn 1.0 0.0 0
f 94//36 7//36 96//36 97//36
f 7//37 12//37 91//37 96//37
f 12//32 89//32 92//32 91//32
g wall_8_47
usemtl wall_1_2
v -203.50003 250.1 1278.56
vn -1.0 0.0 -0
f 90//38 95//38 98//38 93//38
f 95//36 94//36 97//36 98//36
f 89//32 90//32 93//32 92//32
g wall_8_48
usemtl wall_1_2
f 92//1 97//1 96//1
f 92//1 96//1 91//1
g wall_8_49
usemtl wall_1_2
f 93//1 98//1 97//1
f 93//1 97//1 92//1
g wall_9_50
usemtl wall_1_2
v 401.5 0.0 1268.56
f 99//3 13//3 94//3
f 99//3 94//3 7//3
g wall_9_51
usemtl wall_1_2
v 401.5 0.0 1278.56
f 13//3 100//3 95//3
f 13//3 95//3 94//3
g wall_9_52
usemtl wall_1_2
v 401.5 250.1 1268.56
f 7//34 94//34 97//34 96//34
f 13//5 99//5 101//5 21//5
f 99//6 7//6 96//6 101//6
g wall_9_53
usemtl wall_1_2
v 401.5 250.1 1278.56
f 94//34 95//34 98//34 97//34
f 95//33 100//33 102//33 98//33
f 100//5 13//5 21//5 102//5
g wall_9_54
usemtl wall_1_2
f 96//1 97//1 21//1
f 96//1 21//1 101//1
g wall_9_55
usemtl wall_1_2
f 97//1 98//1 102//1
f 97//1 102//1 21//1
g room_16_56
usemtl wall_1_2
f 9//1 8//1 11//1
f 9//1 11//1 10//1
g room_16_57
usemtl wall_1_2
v 886.5 250.0 1276.5806
v 886.5 250.0 1755.0864
v 406.5 250.0 1755.0864
v 406.5 250.0 1278.5398
f 103//3 104//3 105//3
f 103//3 105//3 106//3
g room_17_58
usemtl wall_1_2
f 12//1 7//1 6//1
f 12//1 6//1 5//1
g Montant_59
usemtl white
v 721.09076 208.5 1278.5894
v 721.09076 0.0 1278.5894
v 721.03906 0.0 1265.922
v 721.03906 208.5 1265.922
v 711.72217 0.0 1265.9601
v 711.7524 0.0 1273.3605
v 711.7524 203.0 1273.3605
v 711.72217 203.0 1265.9601
v 566.04034 208.5 1266.5547
v 566.09204 208.5 1279.222
v 573.52405 204.09999 1273.9247
v 573.54553 204.09999 1279.1915
v 573.54553 0.0 1279.1915
v 573.52405 0.0 1273.9247
v 566.04034 0.0 1266.5547
v 566.09204 0.0 1279.222
v 713.6158 204.09999 1273.3529
v 713.63727 204.09999 1278.6198
v 575.3874 203.0 1273.917
v 575.3874 0.0 1273.917
v 575.35724 0.0 1266.5166
v 575.35724 203.0 1266.5166
v 713.63727 0.0 1278.6198
v 713.6158 0.0 1273.3529
vn 0.99999166 0.0 -0.00408154
vn -0.99999166 0.0 0.00408154
vn 0.00408154 0.0 0.99999166
vn -0.00408154 0.0 -0.99999166
f 107//39 108//39 109//39
f 107//39 109//39 110//39
f 111//40 112//40 113//40
f 111//40 113//40 114//40
f 115//1 116//1 107//1
f 115//1 107//1 110//1
f 117//39 118//39 119//39
f 117//39 119//39 120//39
f 116//40 115//40 121//40
f 116//40 121//40 122//40
f 118//3 117//3 123//3
f 118//3 123//3 124//3
f 125//39 126//39 127//39
f 125//39 127//39 128//39
f 129//41 108//41 107//41
f 124//41 129//41 107//41
f 124//41 107//41 116//41
f 118//41 124//41 116//41
f 118//41 116//41 122//41
f 118//41 122//41 119//41
f 129//40 124//40 123//40
f 129//40 123//40 130//40
f 128//42 127//42 121//42
f 128//42 121//42 115//42
f 128//42 115//42 110//42
f 114//42 128//42 110//42
f 114//42 110//42 109//42
f 114//42 109//42 111//42
f 128//3 114//3 113//3
f 128//3 113//3 125//3
f 120//3 119//3 122//3
f 120//3 122//3 121//3
f 109//3 108//3 129//3
f 109//3 129//3 130//3
f 121//3 127//3 126//3
f 121//3 126//3 120//3
f 111//3 109//3 130//3
f 111//3 130//3 112//3
f 117//41 125//41 113//41
f 117//41 113//41 123//41
f 112//41 130//41 123//41
f 112//41 123//41 113//41
f 117//41 120//41 126//41
f 117//41 126//41 125//41
g Montant_60
usemtl white
v 573.7083 208.5 1753.0706
v 573.7083 0.0 1753.0706
v 573.76 0.0 1765.7379
v 573.76 208.5 1765.7379
v 583.0769 0.0 1765.6998
v 583.0467 0.0 1758.2994
v 583.0467 203.0 1758.2994
v 583.0769 203.0 1765.6998
v 728.7587 208.5 1765.1052
v 728.70703 208.5 1752.4379
v 721.275 204.09999 1757.7352
v 721.25354 204.09999 1752.4684
v 721.25354 0.0 1752.4684
v 721.275 0.0 1757.7352
v 728.7587 0.0 1765.1052
v 728.70703 0.0 1752.4379
v 581.1833 204.09999 1758.3071
v 581.1618 204.09999 1753.0402
v 719.4117 203.0 1757.7429
v 719.4117 0.0 1757.7429
v 719.44183 0.0 1765.1432
v 719.44183 203.0 1765.1432
v 581.1618 0.0 1753.0402
v 581.1833 0.0 1758.3071
vn -0.99999166 0.0 0.0040816274
vn 0.99999166 0.0 -0.0040816274
vn -0.004081627 0.0 -0.99999166
vn -0.0040816274 0.0 -0.99999166
vn 0.004081627 0.0 0.99999166
vn 0.0040816274 0.0 0.99999166
f 131//43 132//43 133//43
f 131//43 133//43 134//43
f 135//44 136//44 137//44
f 135//44 137//44 138//44
f 139//1 140//1 131//1
f 139//1 131//1 134//1
f 141//43 142//43 143//43
f 141//43 143//43 144//43
f 140//44 139//44 145//44
f 140//44 145//44 146//44
f 142//3 141//3 147//3
f 142//3 147//3 148//3
f 149//43 150//43 151//43
f 149//43 151//43 152//43
f 153//45 132//45 131//45
f 148//46 153//46 131//46
f 148//46 131//46 140//46
f 142//46 148//46 140//46
f 142//45 140//45 146//45
f 142//46 146//46 143//46
f 153//44 148//44 147//44
f 153//44 147//44 154//44
f 152//47 151//47 145//47
f 152//47 145//47 139//47
f 152//48 139//48 134//48
f 138//48 152//48 134//48
f 138//47 134//47 133//47
f 138//47 133//47 135//47
f 152//3 138//3 137//3
f 152//3 137//3 149//3
f 144//3 143//3 146//3
f 144//3 146//3 145//3
f 133//3 132//3 153//3
f 133//3 153//3 154//3
f 145//3 151//3 150//3
f 145//3 150//3 144//3
f 135//3 133//3 154//3
f 135//3 154//3 136//3
f 141//46 149//46 137//46
f 141//46 137//46 147//46
f 136//46 154//46 147//46
f 136//46 147//46 137//46
f 141//46 144//46 150//46
f 141//46 150//46 149//46
