<?xml version="1.0" encoding="UTF-8" standalone="no"?>
<svg
   xmlns:dc="http://purl.org/dc/elements/1.1/"
   xmlns:cc="http://creativecommons.org/ns#"
   xmlns:rdf="http://www.w3.org/1999/02/22-rdf-syntax-ns#"
   xmlns:svg="http://www.w3.org/2000/svg"
   xmlns="http://www.w3.org/2000/svg"
   xmlns:xlink="http://www.w3.org/1999/xlink"
   xmlns:sodipodi="http://sodipodi.sourceforge.net/DTD/sodipodi-0.dtd"
   xmlns:inkscape="http://www.inkscape.org/namespaces/inkscape"
   width="320mm"
   height="320mm"
   viewBox="0 0 320 320"
   version="1.1"
   id="svg8"
   sodipodi:docname="stv.svg"
   inkscape:version="1.0.2-2 (e86c870879, 2021-01-15)">
  <defs
     id="defs2">
    <linearGradient
       inkscape:collect="always"
       id="linearGradient1233">
      <stop
         style="stop-color:#8ecbff;stop-opacity:1"
         offset="0"
         id="stop1229" />
      <stop
         style="stop-color:#5066fb;stop-opacity:1"
         offset="1"
         id="stop1231" />
    </linearGradient>
    <radialGradient
       inkscape:collect="always"
       xlink:href="#linearGradient1233"
       id="radialGradient1235"
       cx="97.315987"
       cy="84.227661"
       fx="97.315987"
       fy="84.227661"
       r="135.31548"
       gradientUnits="userSpaceOnUse" />
  </defs>
  <sodipodi:namedview
     id="base"
     pagecolor="#ffffff"
     bordercolor="#666666"
     borderopacity="1.0"
     inkscape:pageopacity="0.0"
     inkscape:pageshadow="2"
     inkscape:zoom="0.12374369"
     inkscape:cx="700.47156"
     inkscape:cy="668.9648"
     inkscape:document-units="mm"
     inkscape:current-layer="layer1"
     inkscape:document-rotation="0"
     showgrid="false"
     inkscape:snap-global="false"
     inkscape:window-width="1920"
     inkscape:window-height="1017"
     inkscape:window-x="-8"
     inkscape:window-y="-8"
     inkscape:window-maximized="1" />
  <metadata
     id="metadata5">
    <rdf:RDF>
      <cc:Work
         rdf:about="">
        <dc:format>image/svg+xml</dc:format>
        <dc:type
           rdf:resource="http://purl.org/dc/dcmitype/StillImage" />
        <dc:title></dc:title>
      </cc:Work>
    </rdf:RDF>
  </metadata>
  <g
     inkscape:label="Lager 1"
     inkscape:groupmode="layer"
     id="layer1">
    <circle
       style="fill:url(#radialGradient1235);fill-opacity:1;stroke:none;stroke-width:0.264583"
       id="path1148"
       cx="162.52975"
       cy="157.99405"
       r="135.31548" />
    <path
       id="path12"
       style="fill:#ffffff;fill-opacity:1;stroke:none;stroke-width:0.210409px;stroke-linecap:butt;stroke-linejoin:miter;stroke-opacity:1"
       d="m 149.50352,55.371146 -5.44187,6.140903 25.40807,-0.243293 h 12.75232 3.9e-4 v 11.052605 h -3.9e-4 L 182.60002,263.99595 194.13765,263.24 V 55.371146 Z m 25.97763,12.140835 -37.00519,0.302863 -12.31794,13.900521 20.18031,-0.258901 h 20.23587 4.2e-4 v 11.052611 h -4.2e-4 V 263.24 l 9.28493,0.75595 z m -15.64781,20.187701 -39.26636,0.325067 -17.39814,19.632501 45.90934,-0.42531 V 263.24 h 10.75516 z"
       sodipodi:nodetypes="ccccccccccccccccccccccccccccc" />
    <path
       style="fill:#000000;fill-opacity:1;stroke:none;stroke-width:0.264583px;stroke-linecap:butt;stroke-linejoin:miter;stroke-opacity:1"
       d="m 618.99623,376.04823 h 56.1266 V 637.43781 H 618.46169 V 441.26199 l -57.73022,0.53454 z"
       id="path12-3"
       sodipodi:nodetypes="ccccccc" />
    <path
       style="fill:#000000;fill-opacity:1;stroke:none;stroke-width:0.264583px;stroke-linecap:butt;stroke-linejoin:miter;stroke-opacity:1"
       d="m 155.55085,905.24977 h 56.1266 V 1166.6394 H 155.01631 V 970.46353 l -57.730216,0.53454 z"
       id="path12-9"
       sodipodi:nodetypes="ccccccc" />
    <path
       style="fill:#000000;fill-opacity:1;stroke:none;stroke-width:0.264583px;stroke-linecap:butt;stroke-linejoin:miter;stroke-opacity:1"
       d="m 117.3023,904.83572 -42.557083,60.83199 -29.501642,13.42845 -113.02587,147.59734 c 0,0 -38.960085,40.9454 -62.867785,51.797 -23.9077,10.8515 -86.17856,1.5119 -86.17856,1.5119 l 4.53571,-196.54763 -68.03571,1.5119 72.57142,-72.57143 49.89287,1.51191 v 184.45235 c 8.46006,14.1179 17.46569,26.4626 41.71786,-10.7439 L 25.076115,904.83572 Z"
       id="path961-4"
       sodipodi:nodetypes="cccczccccccccc" />
    <path
       style="fill:#000000;fill-opacity:1;stroke:none;stroke-width:0.264583px;stroke-linecap:butt;stroke-linejoin:miter;stroke-opacity:1"
       d="m -228.78273,912.19878 -83.3881,74.83546 h -156.08538 l 88.73348,-72.6973 z"
       id="path963-1"
       sodipodi:nodetypes="ccccc" />
    <rect
       style="fill:#000000;fill-opacity:1;stroke:none;stroke-width:0.259395"
       id="rect965-8"
       width="73.949791"
       height="187.48697"
       x="-414.80231"
       y="998.79407" />
    <path
       style="fill:#000000;fill-opacity:1;stroke:none;stroke-width:0.264583px;stroke-linecap:butt;stroke-linejoin:miter;stroke-opacity:1"
       d="m 300.30722,-997.70926 h 56.1266 v 261.38959 H 299.77268 V -932.4955 l -57.73022,0.53454 z"
       id="path12-1"
       sodipodi:nodetypes="ccccccc" />
    <path
       style="fill:#000000;fill-opacity:1;stroke:none;stroke-width:0.264583px;stroke-linecap:butt;stroke-linejoin:miter;stroke-opacity:1"
       d="m 272.642,-998.12331 -53.14042,60.83199 -14.32969,-1.38107 -15.17195,14.80952 -113.025864,147.59738 c 0,0 -38.960083,40.94535 -62.867783,51.79692 -23.9077003,10.85157 -86.17856,1.51191 -86.17856,1.51191 l 4.53571,-196.5476 -68.035713,1.5119 72.571423,-72.57143 49.89287,1.51191 v 196.21223 c 13.00363975,-1.91831 18.2674997,2.14107 41.71786,-22.50374 L 169.83248,-998.12331 Z"
       id="path961-3"
       sodipodi:nodetypes="ccccczccccccccc" />
    <path
       style="fill:#000000;fill-opacity:1;stroke:none;stroke-width:0.264583px;stroke-linecap:butt;stroke-linejoin:miter;stroke-opacity:1"
       d="m -87.157617,-990.76025 -80.256843,74.83546 h -156.08538 l 88.73348,-72.6973 z"
       id="path963-8"
       sodipodi:nodetypes="ccccc" />
    <rect
       style="fill:#000000;fill-opacity:1;stroke:none;stroke-width:0.259395"
       id="rect965-7"
       width="73.949791"
       height="187.48697"
       x="-270.04596"
       y="-904.16492" />
    <path
       id="rect837-7"
       style="fill:#ff0000;fill-opacity:1;stroke:none;stroke-width:0.264583"
       d="m 195.7106,-963.61709 c 0,0 -125.710694,188.76507 -177.513047,215.58012 -51.80236,26.81504 -69.91618,9.53495 -69.91618,9.53495 l 1.4723,-214.76814 -12.02179,-0.17885 -264.405303,-0.90789 c -41.29265,15.22604 -49.59536,20.01155 0.82573,14.63634 l 267.226253,-7.01418 c 0,0 -7.74912,162.86188 -2.00462,197.92804 5.7445,35.06616 -3.75554,8.55151 5.01637,14.41538 8.77191,5.86387 19.37891,17.41523 73.89883,-8.54436 C 72.80905,-768.89527 199.2939,-955.98782 199.2939,-955.98782 l 104.59265,-1.06908 v 238.03766 h 8.47648 V -951.0092 h 5.2e-4 v -13.89838 h -5.2e-4 -16.03571 z"
       sodipodi:nodetypes="czcccccczzzcccccccccc" />
    <path
       id="rect837-4-5"
       style="fill:#ff0000;fill-opacity:1;stroke:none;stroke-width:0.264583"
       d="M 190.58718,-989.00282 21.626733,-794.00247 c -15.1261303,13.44303 -31.2766203,11.24232 -39.44743,13.00947 l -8.12254,-198.79683 -7.86406,0.5771 -268.314753,-0.5299 -4.47898,3.84301 c -19.1878,1.33305 11.35232,5.50168 11.35232,5.50168 l 263.576193,-1.72252 c 0,0 7.21798,177.82898 7.08255,182.96095 -0.13543,5.13197 -3.221,6.94789 5.55091,12.81176 8.77191,5.86387 32.9987,-2.75615 32.9987,-2.75615 l 188.526317,-202.26965 130.48767,-1.06908 v 259.41921 h 8.47648 v -253.37152 h 5.2e-4 v -13.89837 h -5.2e-4 -16.03571 z"
       sodipodi:nodetypes="ccccccccczzccccccccccc" />
    <path
       id="path12-97"
       style="fill:#000000;fill-opacity:1;stroke:none;stroke-width:0.264583px;stroke-linecap:butt;stroke-linejoin:miter;stroke-opacity:1"
       d="m -3447.5291,-412.86554 -141.2229,182.77955 c -23.4504,24.6448 -28.7142,20.58574 -41.7179,22.50405 v -196.21231 l -49.8925,-1.51205 -72.5713,72.57179 68.0356,-1.51205 -4.5356,196.54768 c 0,0 62.2705,9.33952 86.1782,-1.51204 23.9077,-10.85157 62.868,-51.79684 62.868,-51.79684 l 113.0256,-147.59771 15.1722,-14.80943 14.3294,1.38131 53.1404,-60.83195 z m 130.4747,0.41394 -58.2646,65.74843 57.7298,-0.53485 v 196.17614 h 56.6611 V -412.4516 Z m -387.4647,6.94892 -147.6091,2.13837 -88.7331,72.69738 h 156.0851 z m -182.8886,86.59523 v 187.48726 h 73.95 v -187.48726 z" />
    <path
       id="rect837-71"
       style="fill:#ff0000;fill-opacity:1;stroke:none;stroke-width:0.264583"
       d="m -3291.9474,-405.03552 -134.8269,1.29036 -168.9607,195.0005 c -15.1262,13.44303 -31.2764,11.24239 -39.4472,13.00954 l -3.8463,-198.79717 -7.8641,0.57723 -272.5911,-0.52968 -4.4788,3.84265 c -19.1879,1.33306 11.3522,5.502 11.3522,5.502 l 267.8524,-1.7229 c 0,0 2.9415,177.82895 2.806,182.96093 -0.1354,5.13197 -3.2208,6.94826 5.5511,12.81213 8.7719,5.86387 32.9985,-2.75642 32.9985,-2.75642 l 188.5265,-202.26982 130.4876,-1.06867 v 259.41931 h 8.4765 v -253.37161 h 6e-4 v -13.89838 h -6e-4 z m -29.0871,25.38553 -100.6166,1.29036 c 0,0 -125.7108,188.76507 -177.5132,215.58013 -51.8023,26.81504 -69.9161,9.53532 -69.9161,9.53532 l 1.4722,-214.76828 -12.0215,-0.1788 -264.4055,-0.90795 c -41.2927,15.22603 -49.5953,20.01152 0.8258,14.63631 l 267.2266,-7.01404 c 0,0 -7.7496,162.86181 -2.0051,197.92798 1.0792,6.58791 1.62,11.00087 1.8454,13.86477 0.5884,-0.50901 1.5773,-0.51522 3.1714,0.55036 8.7719,5.86388 19.3789,17.4154 73.8988,-8.54419 36.4163,-17.33957 104.9395,-106.56896 146.4314,-163.91505 20.6268,-28.50842 34.5731,-49.13705 34.5731,-49.13705 l 104.5925,-1.06919 v 238.03767 h 8.4765 v -231.98998 h 6e-4 v -13.89837 h -6e-4 z m -355.108,229.9658 c -2.0412,1.7658 0.7561,9.60996 0,0 z" />
    <path
       id="path12-4"
       style="fill:#ffffff;fill-opacity:1;stroke:none;stroke-width:0.0904377px;stroke-linecap:butt;stroke-linejoin:miter;stroke-opacity:1"
       d="m 628.77709,548.90838 -48.27169,62.47625 c -8.01562,8.42389 -9.81487,7.03645 -14.25967,7.69216 v -67.06774 l -17.05388,-0.51684 -4.5369,5.07194 14.94378,0.35839 2.68805,-0.1973 0.53945,70.01844 c 2.79288,-0.60403 8.31323,0.14818 13.48353,-4.44681 l 59.56157,-70.27104 25.53737,-0.24446 2.50982,-2.87299 z m 44.59785,0.14148 -2.339,2.63948 10.9209,-0.10457 h 5.4812 10e-5 v 4.75063 h -10e-5 v 82.06063 h 5.1215 v -89.34617 z m -132.44013,2.37523 -50.45456,0.73092 -7.10944,4.62293 50.02163,0.0971 z m 143.60583,2.84314 -15.90557,0.13018 -5.2945,5.97472 8.67387,-0.11128 h 5.4812 2e-4 v 4.75063 h -2e-4 v 73.38355 h 7.045 z m -25.48668,0.20878 -19.11558,0.1565 -66.24938,72.75578 c 0,0 -8.28094,2.94651 -11.27928,0.94218 -2.99835,-2.00435 -1.94372,-2.62518 -1.89743,-4.37934 0.0463,-1.75418 -0.18388,-64.60543 -0.18388,-64.60543 l -17.81871,-0.6555 -5.95989,5.44305 12.89251,0.0443 4.10909,0.0611 -0.82631,72.45638 c 0,0 11.4478,3.3889 24.22125,-2.30528 18.21081,-8.11806 60.67615,-73.68789 60.67615,-73.68789 l 16.17406,-0.20737 z m -128.50042,5.04632 -50.93218,0.32749 -3.50836,4.07588 51.22576,0.17593 z m 144.0448,3.42198 -13.66091,0.13972 -7.47807,8.43844 19.73278,-0.18281 v 67.05537 h 1.4062 z m -23.14857,0.23669 -12.60247,0.12877 c 0,0 -4.767,6.7927 -11.8175,16.53722 -14.18241,19.60158 -38.3701,51.41347 -50.82726,57.32006 -10.94836,5.1912 -23.4238,4.09995 -26.42214,2.09561 0.27983,-4.03997 -0.31584,-3.59847 0.22309,-7.5111 -1.96354,-11.98604 0.68535,-65.27894 0.68535,-65.27894 l -16.92246,0.44424 -9.38027,9.38027 23.2554,-0.51684 -1.55033,67.18237 c 0,0 21.2848,3.19236 29.45674,-0.51684 8.17195,-3.70919 21.48904,-17.70478 21.48904,-17.70478 l 38.63354,-50.45067 5.18604,-5.06205 4.89795,0.47215 z m -127.40369,3.99092 -53.61282,1.40726 -10.28305,8.42467 h 53.35175 z m -45.6248,13.85147 v 64.0854 h 3.84661 v -64.0854 z m 7.72254,0 v 64.0854 h 9.43132 v -64.0854 z m 13.30725,0 v 64.0854 h 4.24722 v -64.0854 z" />
  </g>
</svg>
