# Blender v2.79 (sub 0) OBJ File: 'Home_Rorstrasndsgatan.blend'
# www.blender.org
mtllib Rorstrandsgatan.mtl
o Plane
v -15.000000 0.000000 16.000000
v 0.000000 0.000000 16.000000
v -15.000000 0.000000 0.000000
v 0.000000 0.000000 0.000000
v 1.000000 0.000000 16.000000
v 16.000000 0.000000 12.937777
v 1.000000 0.000000 0.000000
v 16.000000 0.000000 0.000000
v 7.000000 0.000000 -1.000000
v 16.000000 0.000000 -1.000000
v 7.000000 0.000000 -17.000000
v 16.000000 0.000000 -17.000000
v -15.000000 0.000000 -1.000000
v 0.000000 0.000000 -1.000000
v -15.000000 0.000000 -17.000000
v 0.000000 0.000000 -17.000000
v 1.000000 0.000000 -1.000000
v 1.000000 0.000000 -17.000000
v 6.000000 0.000000 -1.000000
v 6.000000 0.000000 -17.000000
v 17.000000 0.000000 7.000000
v 31.000000 0.000000 7.000000
v 17.000000 0.000000 -6.000000
v 31.000000 0.000000 -6.000000
v 17.000000 0.000000 -7.000000
v 31.000000 0.000000 -7.000000
v 17.000000 0.000000 -17.000000
v 31.000000 0.000000 -17.000000
v 2.495487 0.000000 16.000000
v 2.495487 0.000000 0.000000
v 4.213801 0.000000 16.000000
v 4.213801 0.000000 0.000000
v 11.117579 0.000000 16.000000
v 11.117579 0.000000 0.000000
v 13.138587 0.000000 16.000000
v 13.138587 0.000000 0.000000
v 1.000000 0.000000 6.529423
v 16.000000 0.000000 6.529423
v 2.495487 0.000000 6.529423
v 4.213801 0.000000 6.529423
v 11.117579 0.000000 6.529423
v 13.138587 0.000000 6.529423
v 1.000000 0.000000 8.445248
v 16.000000 0.000000 8.445248
v 2.495487 0.000000 8.445248
v 4.213801 0.000000 8.445248
v 11.117579 0.000000 8.445248
v 13.138587 0.000000 8.445248
v -15.000000 0.000000 8.395815
v 0.000000 0.000000 8.395815
v 0.000000 0.000000 6.509340
v -15.000000 0.000000 6.509340
v -11.859592 0.000000 16.000000
v -11.859592 0.000000 0.000000
v -11.859592 0.000000 8.395815
v -11.859592 0.000000 6.509340
v -10.292416 0.000000 16.000000
v -10.292416 0.000000 0.000000
v -10.292416 0.000000 8.395815
v -10.292416 0.000000 6.509340
v -10.335634 0.000000 -1.000000
v -10.335634 0.000000 -17.000000
v -11.885914 0.000000 -17.000000
v -11.885914 0.000000 -1.000000
v -15.000000 0.000000 -2.551853
v 6.000000 0.000000 -2.551853
v 0.000000 0.000000 -2.551853
v 1.000000 0.000000 -2.551853
v -10.335634 0.000000 -2.551853
v -11.885914 0.000000 -2.551853
v 0.000000 0.000000 -4.374813
v 1.000000 0.000000 -4.374813
v -10.335634 0.000000 -4.374813
v -11.885914 0.000000 -4.374813
v -15.000000 0.000000 -4.374813
v 6.000000 0.000000 -4.374813
v 2.494017 0.000000 -1.000000
v 2.494017 0.000000 -17.000000
v 2.494017 0.000000 -2.551853
v 2.494017 0.000000 -4.374813
v 4.195668 0.000000 -17.000000
v 4.195668 0.000000 -2.551853
v 4.195668 0.000000 -4.374813
v 4.195668 0.000000 -1.000000
v 7.000000 0.000000 -2.549274
v 16.000000 0.000000 -2.469913
v 16.000000 0.000000 -4.373301
v 7.000000 0.000000 -4.373301
v 11.150701 0.000000 -1.000000
v 11.150701 0.000000 -17.000000
v 11.150701 0.000000 -2.469913
v 11.150701 0.000000 -4.373301
v 13.082799 0.000000 -1.000000
v 13.082799 0.000000 -17.000000
v 13.082799 0.000000 -2.469913
v 13.082799 0.000000 -4.373301
v 17.000000 0.000000 -2.469607
v 31.000000 0.000000 -2.469607
v 31.000000 0.000000 -4.342402
v 17.000000 0.000000 -4.420443
v 17.000000 0.000000 -8.267295
v 31.000000 0.000000 -8.267295
v 31.000000 0.000000 -10.160476
v 17.000000 0.000000 -10.203057
v 16.000000 0.000000 -8.275971
v 7.000000 0.000000 -8.336597
v 11.150701 0.000000 -8.336597
v 13.082799 0.000000 -8.336597
v 16.000000 0.000000 -10.234262
v 11.150701 0.000000 -10.234262
v 13.082799 0.000000 -10.234262
v 7.000000 0.000000 -10.234262
v -15.000000 3.000000 16.000000
v 0.000000 3.000000 16.000000
v -15.000000 3.000000 0.000000
v 0.000000 3.000000 0.000000
v 1.000000 3.000000 16.000000
v 16.000000 3.000000 12.937777
v 1.000000 3.000000 0.000000
v 16.000000 3.000000 0.000000
v 7.000000 3.000000 -1.000000
v 16.000000 3.000000 -1.000000
v 7.000000 3.000000 -17.000000
v 16.000000 3.000000 -17.000000
v -15.000000 3.000000 -1.000000
v 0.000000 3.000000 -1.000000
v -15.000000 3.000000 -17.000000
v 0.000000 3.000000 -17.000000
v 1.000000 3.000000 -1.000000
v 1.000000 3.000000 -17.000000
v 6.000000 3.000000 -1.000000
v 6.000000 3.000000 -17.000000
v 17.000000 3.000000 7.000000
v 31.000000 3.000000 7.000000
v 17.000000 3.000000 -6.000000
v 31.000000 3.000000 -6.000000
v 17.000000 3.000000 -7.000000
v 31.000000 3.000000 -7.000000
v 17.000000 3.000000 -17.000000
v 31.000000 3.000000 -17.000000
v 2.495487 3.000000 16.000000
v 2.495487 3.000000 0.000000
v 4.213801 3.000000 16.000000
v 4.213801 3.000000 0.000000
v 11.117579 3.000000 16.000000
v 11.117579 3.000000 0.000000
v 13.138587 3.000000 16.000000
v 13.138587 3.000000 0.000000
v 1.000000 3.000000 6.529423
v 16.000000 3.000000 6.529423
v 1.000000 3.000000 8.445248
v 16.000000 3.000000 8.445248
v -15.000000 3.000000 8.395815
v 0.000000 3.000000 8.395815
v 0.000000 3.000000 6.509340
v -15.000000 3.000000 6.509340
v -11.859592 3.000000 16.000000
v -11.859592 3.000000 0.000000
v -10.292416 3.000000 16.000000
v -10.292416 3.000000 0.000000
v -10.335634 3.000000 -1.000000
v -10.335634 3.000000 -17.000000
v -11.885914 3.000000 -17.000000
v -11.885914 3.000000 -1.000000
v -15.000000 3.000000 -2.551853
v 6.000000 3.000000 -2.551853
v -15.000000 3.000000 -4.374813
v 6.000000 3.000000 -4.374813
v 2.494017 3.000000 -1.000000
v 2.494017 3.000000 -17.000000
v 4.195668 3.000000 -17.000000
v 4.195668 3.000000 -1.000000
v 7.000000 3.000000 -2.549274
v 16.000000 3.000000 -2.469913
v 16.000000 3.000000 -4.373301
v 7.000000 3.000000 -4.373301
v 11.150701 3.000000 -1.000000
v 11.150701 3.000000 -17.000000
v 13.082799 3.000000 -1.000000
v 13.082799 3.000000 -17.000000
v 17.000000 3.000000 -2.469607
v 31.000000 3.000000 -2.469607
v 31.000000 3.000000 -4.342402
v 17.000000 3.000000 -4.420443
v 17.000000 3.000000 -8.267295
v 31.000000 3.000000 -8.267295
v 31.000000 3.000000 -10.160476
v 17.000000 3.000000 -10.203057
v 16.000000 3.000000 -8.275971
v 7.000000 3.000000 -8.336597
v 16.000000 3.000000 -10.234262
v 7.000000 3.000000 -10.234262
v -15.000000 4.000000 16.000000
v 0.000000 4.000000 16.000000
v -15.000000 4.000000 0.000000
v 0.000000 4.000000 0.000000
v 1.000000 4.000000 16.000000
v 16.000000 4.000000 12.937777
v 1.000000 4.000000 0.000000
v 16.000000 4.000000 0.000000
v 7.000000 4.000000 -1.000000
v 16.000000 4.000000 -1.000000
v 7.000000 4.000000 -17.000000
v 16.000000 4.000000 -17.000000
v -15.000000 4.000000 -1.000000
v 0.000000 4.000000 -1.000000
v -15.000000 4.000000 -17.000000
v 0.000000 4.000000 -17.000000
v 1.000000 4.000000 -1.000000
v 1.000000 4.000000 -17.000000
v 6.000000 4.000000 -1.000000
v 6.000000 4.000000 -17.000000
v 17.000000 4.000000 7.000000
v 31.000000 4.000000 7.000000
v 17.000000 4.000000 -6.000000
v 31.000000 4.000000 -6.000000
v 17.000000 4.000000 -7.000000
v 31.000000 4.000000 -7.000000
v 17.000000 4.000000 -17.000000
v 31.000000 4.000000 -17.000000
v 2.495487 4.000000 16.000000
v 2.495487 4.000000 0.000000
v 4.213801 4.000000 16.000000
v 4.213801 4.000000 0.000000
v 11.117579 4.000000 16.000000
v 11.117579 4.000000 0.000000
v 13.138587 4.000000 16.000000
v 13.138587 4.000000 0.000000
v 1.000000 4.000000 6.529423
v 16.000000 4.000000 6.529423
v 2.495487 4.000000 6.529423
v 4.213801 4.000000 6.529423
v 11.117579 4.000000 6.529423
v 13.138587 4.000000 6.529423
v 1.000000 4.000000 8.445248
v 16.000000 4.000000 8.445248
v 2.495487 4.000000 8.445248
v 4.213801 4.000000 8.445248
v 11.117579 4.000000 8.445248
v 13.138587 4.000000 8.445248
v -15.000000 4.000000 8.395815
v 0.000000 4.000000 8.395815
v 0.000000 4.000000 6.509340
v -15.000000 4.000000 6.509340
v -11.859592 4.000000 16.000000
v -11.859592 4.000000 0.000000
v -11.859592 4.000000 8.395815
v -11.859592 4.000000 6.509340
v -10.292416 4.000000 16.000000
v -10.292416 4.000000 0.000000
v -10.292416 4.000000 8.395815
v -10.292416 4.000000 6.509340
v -10.335634 4.000000 -1.000000
v -10.335634 4.000000 -17.000000
v -11.885914 4.000000 -17.000000
v -11.885914 4.000000 -1.000000
v -15.000000 4.000000 -2.551853
v 6.000000 4.000000 -2.551853
v 0.000000 4.000000 -2.551853
v 1.000000 4.000000 -2.551853
v -10.335634 4.000000 -2.551853
v -11.885914 4.000000 -2.551853
v 0.000000 4.000000 -4.374813
v 1.000000 4.000000 -4.374813
v -10.335634 4.000000 -4.374813
v -11.885914 4.000000 -4.374813
v -15.000000 4.000000 -4.374813
v 6.000000 4.000000 -4.374813
v 2.494017 4.000000 -1.000000
v 2.494017 4.000000 -17.000000
v 2.494017 4.000000 -2.551853
v 2.494017 4.000000 -4.374813
v 4.195668 4.000000 -17.000000
v 4.195668 4.000000 -2.551853
v 4.195668 4.000000 -4.374813
v 4.195668 4.000000 -1.000000
v 7.000000 4.000000 -2.549274
v 16.000000 4.000000 -2.469913
v 16.000000 4.000000 -4.373301
v 7.000000 4.000000 -4.373301
v 11.150701 4.000000 -1.000000
v 11.150701 4.000000 -17.000000
v 11.150701 4.000000 -2.469913
v 11.150701 4.000000 -4.373301
v 13.082799 4.000000 -1.000000
v 13.082799 4.000000 -17.000000
v 13.082799 4.000000 -2.469913
v 13.082799 4.000000 -4.373301
v 17.000000 4.000000 -2.469607
v 31.000000 4.000000 -2.469607
v 31.000000 4.000000 -4.342402
v 17.000000 4.000000 -4.420443
v 17.000000 4.000000 -8.267295
v 31.000000 4.000000 -8.267295
v 31.000000 4.000000 -10.160476
v 17.000000 4.000000 -10.203057
v 16.000000 4.000000 -8.275971
v 7.000000 4.000000 -8.336597
v 11.150701 4.000000 -8.336597
v 13.082799 4.000000 -8.336597
v 16.000000 4.000000 -10.234262
v 11.150701 4.000000 -10.234262
v 13.082799 4.000000 -10.234262
v 7.000000 4.000000 -10.234262
v 0.000000 0.000000 -13.587539
v 1.000000 0.000000 -13.587539
v -10.335634 0.000000 -13.587539
v -11.885914 0.000000 -13.587539
v -15.000000 0.000000 -13.587539
v 6.000000 0.000000 -13.587539
v 2.494017 0.000000 -13.587539
v 4.195668 0.000000 -13.587539
v -15.000000 3.000000 -13.587539
v 6.000000 3.000000 -13.587539
v 0.000000 4.000000 -13.587539
v 1.000000 4.000000 -13.587539
v -10.335634 4.000000 -13.587539
v -11.885914 4.000000 -13.587539
v -15.000000 4.000000 -13.587539
v 6.000000 4.000000 -13.587539
v 2.494017 4.000000 -13.587539
v 4.195668 4.000000 -13.587539
vn 0.0000 -1.0000 0.0000
vn 0.0000 0.0000 -1.0000
vn 1.0000 0.0000 0.0000
vn -1.0000 0.0000 0.0000
vn -0.0494 0.0000 0.9988
vn 0.0000 0.0000 1.0000
vn 0.0201 0.0000 -0.9998
vn -0.0087 0.0000 1.0000
vn 0.0312 0.0000 -0.9995
vn -0.0471 0.0000 -0.9989
vn -0.0003 0.0000 1.0000
vn -0.0026 0.0000 1.0000
vn 0.0015 0.0000 -1.0000
vn -0.9997 0.0000 0.0263
vn 0.9991 0.0000 -0.0432
vn -1.0000 0.0000 0.0015
vn 0.9998 0.0000 -0.0181
vn -0.9995 0.0000 -0.0331
vn 0.9984 0.0000 -0.0557
vn 0.0087 0.0000 -1.0000
vn 0.0000 1.0000 0.0000
vn 0.7307 0.0000 0.6827
usemtl Material.001
s off
f 60//1 58//1 4//1 51//1
f 42//1 36//1 8//1 38//1
f 111//1 94//1 12//1 109//1
f 100//1 23//1 24//1 99//1
f 104//1 27//1 28//1 103//1
f 69//1 67//1 14//1 61//1
f 79//1 77//1 17//1 68//1
f 67//1 68//1 17//1 14//1
f 37//1 7//1 30//1 39//1
f 39//1 30//1 32//1 40//1
f 40//1 32//1 34//1 41//1
f 41//1 34//1 36//1 42//1
f 47//1 41//1 42//1 48//1
f 46//1 40//1 41//1 47//1
f 45//1 39//1 40//1 46//1
f 43//1 37//1 39//1 45//1
f 48//1 42//1 38//1 44//1
f 35//1 48//1 44//1 6//1
f 5//1 43//1 45//1 29//1
f 29//1 45//1 46//1 31//1
f 31//1 46//1 47//1 33//1
f 33//1 47//1 48//1 35//1
f 57//1 59//1 50//1 2//1
f 59//1 60//1 51//1 50//1
f 49//1 52//1 56//1 55//1
f 1//1 49//1 55//1 53//1
f 52//1 3//1 54//1 56//1
f 55//1 56//1 60//1 59//1
f 53//1 55//1 59//1 57//1
f 56//1 54//1 58//1 60//1
f 70//1 69//1 61//1 64//1
f 65//1 70//1 64//1 13//1
f 75//1 74//1 70//1 65//1
f 74//1 73//1 69//1 70//1
f 71//1 72//1 68//1 67//1
f 80//1 79//1 68//1 72//1
f 73//1 71//1 67//1 69//1
f 307//1 305//1 71//1 73//1
f 311//1 80//1 72//1 306//1
f 305//1 306//1 72//1 71//1
f 308//1 307//1 73//1 74//1
f 309//1 308//1 74//1 75//1
f 312//1 83//1 80//1 311//1
f 83//1 82//1 79//1 80//1
f 82//1 84//1 77//1 79//1
f 66//1 19//1 84//1 82//1
f 76//1 66//1 82//1 83//1
f 310//1 76//1 83//1 312//1
f 93//1 95//1 86//1 10//1
f 95//1 96//1 87//1 86//1
f 85//1 88//1 92//1 91//1
f 9//1 85//1 91//1 89//1
f 112//1 11//1 90//1 110//1
f 91//1 92//1 96//1 95//1
f 89//1 91//1 95//1 93//1
f 110//1 90//1 94//1 111//1
f 21//1 97//1 98//1 22//1
f 97//1 100//1 99//1 98//1
f 25//1 101//1 102//1 26//1
f 101//1 104//1 103//1 102//1
f 92//1 107//1 108//1 96//1
f 88//1 106//1 107//1 92//1
f 96//1 108//1 105//1 87//1
f 107//1 110//1 111//1 108//1
f 106//1 112//1 110//1 107//1
f 108//1 111//1 109//1 105//1
f 36//1 34//1 89//1 93//1
f 30//1 77//1 84//1 32//1
f 58//1 54//1 64//1 61//1
f 66//1 76//1 88//1 85//1
f 86//1 87//1 100//1 97//1
f 104//1 101//1 105//1 109//1
f 37//1 43//1 50//1 51//1
f 158//2 115//2 195//2 246//2
f 155//3 116//3 196//3 243//3
f 180//2 178//2 282//2 286//2
f 192//4 190//4 298//4 304//4
f 154//5 151//5 235//5 242//5
f 159//6 114//6 194//6 249//6
f 121//6 177//6 281//6 201//6
f 175//3 189//3 297//3 279//3
f 149//7 155//7 243//7 229//7
f 153//4 113//4 193//4 241//4
f 189//8 185//8 293//8 297//8
f 116//2 160//2 250//2 196//2
f 190//4 176//4 280//4 298//4
f 187//3 140//3 220//3 295//3
f 139//4 188//4 296//4 219//4
f 188//9 191//9 301//9 296//9
f 157//6 159//6 249//6 245//6
f 185//4 137//4 217//4 293//4
f 186//3 187//3 295//3 294//3
f 184//10 175//10 279//10 292//10
f 140//2 139//2 219//2 220//2
f 174//11 181//11 289//11 278//11
f 122//3 174//3 278//3 202//3
f 137//6 138//6 218//6 217//6
f 138//3 186//3 294//3 218//3
f 166//12 173//12 277//12 258//12
f 136//2 135//2 215//2 216//2
f 176//13 168//13 268//13 280//13
f 183//3 136//3 216//3 291//3
f 164//14 158//14 246//14 256//14
f 133//6 134//6 214//6 213//6
f 135//4 184//4 292//4 215//4
f 160//15 161//15 253//15 250//15
f 181//4 133//4 213//4 289//4
f 182//3 183//3 291//3 290//3
f 169//16 142//16 222//16 269//16
f 113//6 157//6 245//6 193//6
f 144//17 172//17 276//17 224//17
f 134//3 182//3 290//3 214//3
f 177//18 146//18 226//18 281//18
f 115//4 156//4 244//4 195//4
f 148//19 179//19 285//19 228//19
f 114//3 154//3 242//3 194//3
f 156//4 153//4 241//4 244//4
f 178//2 123//2 203//2 282//2
f 123//4 192//4 304//4 203//4
f 191//3 124//3 204//3 301//3
f 179//6 122//6 202//6 285//6
f 124//2 180//2 286//2 204//2
f 173//4 121//4 201//4 277//4
f 11//4 112//4 192//4 123//4
f 90//2 11//2 123//2 178//2
f 52//4 49//4 153//4 156//4
f 2//3 50//3 154//3 114//3
f 36//19 93//19 179//19 148//19
f 3//4 52//4 156//4 115//4
f 89//18 34//18 146//18 177//18
f 22//3 98//3 182//3 134//3
f 32//17 84//17 172//17 144//17
f 1//6 53//6 157//6 113//6
f 77//16 30//16 142//16 169//16
f 98//3 99//3 183//3 182//3
f 97//4 21//4 133//4 181//4
f 58//15 61//15 161//15 160//15
f 23//4 100//4 184//4 135//4
f 21//6 22//6 134//6 133//6
f 64//14 54//14 158//14 164//14
f 99//3 24//3 136//3 183//3
f 88//13 76//13 168//13 176//13
f 24//2 23//2 135//2 136//2
f 66//12 85//12 173//12 166//12
f 26//3 102//3 186//3 138//3
f 25//6 26//6 138//6 137//6
f 10//3 86//3 174//3 122//3
f 86//11 97//11 181//11 174//11
f 28//2 27//2 139//2 140//2
f 100//10 87//10 175//10 184//10
f 102//3 103//3 187//3 186//3
f 101//4 25//4 137//4 185//4
f 53//6 57//6 159//6 157//6
f 104//9 109//9 191//9 188//9
f 27//4 104//4 188//4 139//4
f 103//3 28//3 140//3 187//3
f 106//4 88//4 176//4 190//4
f 4//2 58//2 160//2 116//2
f 105//20 189//20 185//20 101//20
f 49//4 1//4 113//4 153//4
f 37//7 51//7 155//7 149//7
f 87//3 105//3 189//3 175//3
f 9//6 89//6 177//6 121//6
f 57//6 2//6 114//6 159//6
f 50//5 43//5 151//5 154//5
f 112//4 106//4 190//4 192//4
f 94//2 90//2 178//2 180//2
f 51//3 4//3 116//3 155//3
f 54//2 3//2 115//2 158//2
f 85//4 9//4 121//4 173//4
f 12//2 94//2 180//2 124//2
f 93//6 10//6 122//6 179//6
f 109//3 12//3 124//3 191//3
f 252//21 243//21 196//21 250//21
f 234//21 230//21 200//21 228//21
f 303//21 301//21 204//21 286//21
f 292//21 291//21 216//21 215//21
f 296//21 295//21 220//21 219//21
f 261//21 253//21 206//21 259//21
f 271//21 260//21 209//21 269//21
f 259//21 206//21 209//21 260//21
f 229//21 231//21 222//21 199//21
f 231//21 232//21 224//21 222//21
f 232//21 233//21 226//21 224//21
f 233//21 234//21 228//21 226//21
f 239//21 240//21 234//21 233//21
f 238//21 239//21 233//21 232//21
f 237//21 238//21 232//21 231//21
f 235//21 237//21 231//21 229//21
f 240//21 236//21 230//21 234//21
f 227//21 198//21 236//21 240//21
f 197//21 221//21 237//21 235//21
f 221//21 223//21 238//21 237//21
f 223//21 225//21 239//21 238//21
f 225//21 227//21 240//21 239//21
f 249//21 194//21 242//21 251//21
f 251//21 242//21 243//21 252//21
f 241//21 247//21 248//21 244//21
f 193//21 245//21 247//21 241//21
f 244//21 248//21 246//21 195//21
f 247//21 251//21 252//21 248//21
f 245//21 249//21 251//21 247//21
f 248//21 252//21 250//21 246//21
f 262//21 256//21 253//21 261//21
f 257//21 205//21 256//21 262//21
f 267//21 257//21 262//21 266//21
f 266//21 262//21 261//21 265//21
f 263//21 259//21 260//21 264//21
f 272//21 264//21 260//21 271//21
f 265//21 261//21 259//21 263//21
f 317//21 265//21 263//21 315//21
f 321//21 316//21 264//21 272//21
f 315//21 263//21 264//21 316//21
f 318//21 266//21 265//21 317//21
f 319//21 267//21 266//21 318//21
f 322//21 321//21 272//21 275//21
f 275//21 272//21 271//21 274//21
f 274//21 271//21 269//21 276//21
f 258//21 274//21 276//21 211//21
f 268//21 275//21 274//21 258//21
f 320//21 322//21 275//21 268//21
f 285//21 202//21 278//21 287//21
f 287//21 278//21 279//21 288//21
f 277//21 283//21 284//21 280//21
f 201//21 281//21 283//21 277//21
f 304//21 302//21 282//21 203//21
f 283//21 287//21 288//21 284//21
f 281//21 285//21 287//21 283//21
f 302//21 303//21 286//21 282//21
f 213//21 214//21 290//21 289//21
f 289//21 290//21 291//21 292//21
f 217//21 218//21 294//21 293//21
f 293//21 294//21 295//21 296//21
f 284//21 288//21 300//21 299//21
f 280//21 284//21 299//21 298//21
f 288//21 279//21 297//21 300//21
f 299//21 300//21 303//21 302//21
f 298//21 299//21 302//21 304//21
f 300//21 297//21 301//21 303//21
f 228//21 285//21 281//21 226//21
f 222//21 224//21 276//21 269//21
f 250//21 253//21 256//21 246//21
f 258//21 277//21 280//21 268//21
f 278//21 289//21 292//21 279//21
f 296//21 301//21 297//21 293//21
f 229//21 243//21 242//21 235//21
f 142//21 144//21 172//21 169//21
f 151//21 149//21 155//21 154//21
f 154//3 155//3 243//3 242//3
f 158//2 246//2 250//2 160//2
f 158//21 160//21 161//21 164//21
f 168//21 166//21 173//21 176//21
f 277//4 280//4 176//4 173//4
f 281//6 177//6 179//6 285//6
f 146//21 148//21 179//21 177//21
f 175//3 279//3 278//3 174//3
f 175//21 174//21 181//21 184//21
f 184//4 181//4 289//4 292//4
f 296//4 188//4 185//4 293//4
f 185//1 189//1 191//1 188//1
f 301//3 297//3 189//3 191//3
f 212//21 273//21 322//21 320//21
f 273//21 270//21 321//21 322//21
f 207//21 319//21 318//21 255//21
f 255//21 318//21 317//21 254//21
f 208//21 315//21 316//21 210//21
f 270//21 210//21 316//21 321//21
f 254//21 317//21 315//21 208//21
f 20//1 310//1 312//1 81//1
f 81//1 312//1 311//1 78//1
f 15//1 63//1 308//1 309//1
f 63//1 62//1 307//1 308//1
f 16//1 18//1 306//1 305//1
f 78//1 311//1 306//1 18//1
f 62//1 16//1 305//1 307//1
usemtl Material.002
f 118//3 152//3 236//3 198//3
f 152//3 150//3 230//3 236//3
f 119//4 149//4 229//4 199//4
f 120//2 148//2 228//2 200//2
f 145//6 147//6 227//6 225//6
f 143//6 145//6 225//6 223//6
f 146//2 144//2 224//2 226//2
f 33//6 35//6 147//6 145//6
f 8//2 36//2 148//2 120//2
f 7//4 37//4 149//4 119//4
f 44//3 38//3 150//3 152//3
f 6//3 44//3 152//3 118//3
f 5//6 29//6 141//6 117//6
f 43//4 5//4 117//4 151//4
f 35//22 6//22 118//22 147//22
f 38//3 8//3 120//3 150//3
f 29//6 31//6 143//6 141//6
f 30//2 7//2 119//2 142//2
f 34//2 32//2 144//2 146//2
f 31//6 33//6 145//6 143//6
f 117//6 141//6 221//6 197//6
f 151//4 117//4 197//4 235//4
f 147//22 118//22 198//22 227//22
f 150//3 120//3 200//3 230//3
f 141//6 143//6 223//6 221//6
f 142//2 119//2 199//2 222//2
f 144//2 142//2 222//2 224//2
f 149//4 151//4 235//4 229//4
f 148//2 146//2 226//2 228//2
usemtl Material.003
f 130//2 128//2 208//2 210//2
f 126//6 129//6 209//6 206//6
f 314//3 132//3 212//3 320//3
f 313//4 167//4 267//4 319//4
f 172//6 131//6 211//6 276//6
f 132//2 171//2 273//2 212//2
f 129//6 169//6 269//6 209//6
f 131//3 166//3 258//3 211//3
f 171//2 170//2 270//2 273//2
f 163//2 127//2 207//2 255//2
f 161//6 126//6 206//6 253//6
f 165//4 125//4 205//4 257//4
f 167//4 165//4 257//4 267//4
f 125//6 164//6 256//6 205//6
f 162//2 163//2 255//2 254//2
f 170//2 130//2 210//2 270//2
f 75//4 65//4 165//4 167//4
f 65//4 13//4 125//4 165//4
f 61//6 14//6 126//6 161//6
f 63//2 15//2 127//2 163//2
f 81//2 78//2 170//2 171//2
f 19//3 66//3 166//3 131//3
f 17//6 77//6 169//6 129//6
f 20//2 81//2 171//2 132//2
f 84//6 19//6 131//6 172//6
f 309//4 75//4 167//4 313//4
f 310//3 20//3 132//3 314//3
f 14//6 17//6 129//6 126//6
f 18//2 16//2 128//2 130//2
f 16//2 62//2 162//2 128//2
f 78//2 18//2 130//2 170//2
f 62//2 63//2 163//2 162//2
f 13//6 64//6 164//6 125//6
f 128//2 162//2 254//2 208//2
f 172//6 276//6 269//6 169//6
f 253//6 256//6 164//6 161//6
f 168//3 268//3 258//3 166//3
f 76//3 310//3 314//3 168//3
f 15//4 309//4 313//4 127//4
f 127//4 313//4 319//4 207//4
f 168//3 314//3 320//3 268//3
